<svg width="16" height="16" viewBox="0 0 16 16" fill="none" xmlns="http://www.w3.org/2000/svg">
<g id="arrow-ios-forward">
<path id="Vector" d="M6.18494 13.9985C5.98635 13.9988 5.79389 13.9292 5.64097 13.8017C5.55491 13.7299 5.48377 13.6418 5.43162 13.5423C5.37947 13.4428 5.34735 13.3339 5.33709 13.2219C5.32682 13.1098 5.33862 12.9969 5.37181 12.8895C5.40499 12.782 5.45891 12.6823 5.53048 12.5958L9.33825 8.01173L5.66647 3.41906C5.59587 3.33158 5.54315 3.23092 5.51133 3.12286C5.47952 3.01481 5.46924 2.9015 5.48109 2.78944C5.49293 2.67738 5.52667 2.56878 5.58037 2.46988C5.63406 2.37098 5.70665 2.28374 5.79396 2.21316C5.88191 2.1353 5.98489 2.07657 6.09646 2.04066C6.20802 2.00475 6.32576 1.99243 6.44228 2.00448C6.55881 2.01652 6.6716 2.05268 6.77357 2.11066C6.87555 2.16865 6.96452 2.24722 7.03489 2.34145L11.1401 7.47292C11.2652 7.62596 11.3335 7.81791 11.3335 8.01601C11.3335 8.2141 11.2652 8.40606 11.1401 8.55909L6.8904 13.6906C6.80513 13.7941 6.69682 13.8759 6.57425 13.9294C6.45168 13.9829 6.3183 14.0065 6.18494 13.9985Z" fill="white"/>
</g>
</svg>
