<svg width="16" height="17" viewBox="0 0 16 17" fill="none" xmlns="http://www.w3.org/2000/svg">
<g id="arrow-ios-forward">
<path id="Vector" d="M6.1847 14.4985C5.9861 14.4988 5.79365 14.4292 5.64073 14.3017C5.55466 14.2299 5.48352 14.1418 5.43138 14.0423C5.37923 13.9428 5.34711 13.8339 5.33684 13.7219C5.32658 13.6098 5.33838 13.4969 5.37156 13.3895C5.40475 13.2821 5.45867 13.1823 5.53024 13.0958L9.33801 8.51173L5.66623 3.91906C5.59563 3.83158 5.5429 3.73092 5.51109 3.62286C5.47927 3.51481 5.46899 3.4015 5.48084 3.28944C5.49269 3.17738 5.52643 3.06878 5.58012 2.96988C5.63382 2.87098 5.70641 2.78374 5.79372 2.71316C5.88166 2.6353 5.98465 2.57657 6.09621 2.54066C6.20778 2.50475 6.32552 2.49243 6.44204 2.50448C6.55856 2.51652 6.67135 2.55268 6.77333 2.61066C6.87531 2.66865 6.96428 2.74722 7.03465 2.84145L11.1399 7.97292C11.2649 8.12596 11.3333 8.31791 11.3333 8.51601C11.3333 8.7141 11.2649 8.90606 11.1399 9.05909L6.89015 14.1906C6.80489 14.2941 6.69658 14.3759 6.57401 14.4294C6.45144 14.4829 6.31806 14.5065 6.1847 14.4985Z" fill="#707070"/>
</g>
</svg>
