<svg width="16" height="16" viewBox="0 0 16 16" fill="none" xmlns="http://www.w3.org/2000/svg">
<g id="Layer 2">
<g id="link-2">
<path id="Vector" d="M8.85996 6.19313L6.19329 8.8598C6.13081 8.92177 6.08121 8.99551 6.04737 9.07675C6.01352 9.15799 5.99609 9.24512 5.99609 9.33313C5.99609 9.42114 6.01352 9.50828 6.04737 9.58952C6.08121 9.67075 6.13081 9.74449 6.19329 9.80646C6.25527 9.86895 6.329 9.91855 6.41024 9.95239C6.49148 9.98624 6.57862 10.0037 6.66663 10.0037C6.75463 10.0037 6.84177 9.98624 6.92301 9.95239C7.00425 9.91855 7.07798 9.86895 7.13996 9.80646L9.80663 7.1398C9.93216 7.01426 10.0027 6.844 10.0027 6.66646C10.0027 6.48893 9.93216 6.31867 9.80663 6.19313C9.68109 6.0676 9.51083 5.99707 9.33329 5.99707C9.15576 5.99707 8.9855 6.0676 8.85996 6.19313V6.19313Z" fill="#026C7C"/>
<path id="Vector_2" d="M8.18669 11.5998L7.33335 12.4465C6.8543 12.9401 6.21031 13.2401 5.52421 13.2893C4.83811 13.3385 4.15791 13.1334 3.61335 12.7131C3.32553 12.476 3.09066 12.1811 2.92391 11.8475C2.75716 11.5139 2.66224 11.149 2.64528 10.7764C2.62831 10.4039 2.68969 10.0319 2.82543 9.68454C2.96118 9.33717 3.16828 9.02214 3.43335 8.7598L4.38002 7.80646C4.44251 7.74449 4.4921 7.67075 4.52595 7.58951C4.55979 7.50828 4.57722 7.42114 4.57722 7.33313C4.57722 7.24512 4.55979 7.15798 4.52595 7.07675C4.4921 6.99551 4.44251 6.92177 4.38002 6.8598C4.31805 6.79731 4.24431 6.74771 4.16307 6.71387C4.08183 6.68002 3.9947 6.6626 3.90669 6.6626C3.81868 6.6626 3.73154 6.68002 3.6503 6.71387C3.56906 6.74771 3.49533 6.79731 3.43335 6.8598L2.58669 7.71313C1.87346 8.4038 1.43508 9.32981 1.35293 10.3192C1.27079 11.3087 1.55046 12.2943 2.14002 13.0931C2.48994 13.5471 2.93245 13.9214 3.43815 14.1912C3.94385 14.4609 4.50116 14.62 5.07307 14.6579C5.64499 14.6957 6.2184 14.6114 6.75523 14.4106C7.29206 14.2098 7.78002 13.897 8.18669 13.4931L9.13335 12.5465C9.25889 12.4209 9.32941 12.2507 9.32941 12.0731C9.32941 11.8956 9.25889 11.7253 9.13335 11.5998C9.00782 11.4743 8.83755 11.4037 8.66002 11.4037C8.48249 11.4037 8.31222 11.4743 8.18669 11.5998V11.5998Z" fill="#026C7C"/>
<path id="Vector_3" d="M13.1069 2.14653C12.3025 1.55084 11.3088 1.26832 10.3114 1.35175C9.31401 1.43517 8.38107 1.87883 7.68686 2.59986L6.96686 3.3332C6.88457 3.39302 6.81575 3.46946 6.76487 3.55757C6.71399 3.64567 6.68218 3.74348 6.6715 3.84466C6.66081 3.94584 6.6715 4.04813 6.70285 4.14492C6.73421 4.24171 6.78554 4.33084 6.85353 4.40653C6.9155 4.46901 6.98924 4.51861 7.07048 4.55246C7.15172 4.5863 7.23885 4.60373 7.32686 4.60373C7.41487 4.60373 7.50201 4.5863 7.58324 4.55246C7.66448 4.51861 7.73822 4.46901 7.80019 4.40653L8.66686 3.5332C9.14326 3.03741 9.78649 2.73575 10.4723 2.6865C11.1581 2.63725 11.8378 2.8439 12.3802 3.26653C12.6702 3.50373 12.9069 3.79937 13.075 4.13417C13.243 4.46898 13.3387 4.83544 13.3557 5.20968C13.3727 5.58392 13.3106 5.95754 13.1735 6.30619C13.0365 6.65485 12.8275 6.97071 12.5602 7.2332L11.6135 8.18653C11.551 8.2485 11.5014 8.32224 11.4676 8.40348C11.4338 8.48472 11.4163 8.57185 11.4163 8.65986C11.4163 8.74787 11.4338 8.83501 11.4676 8.91625C11.5014 8.99749 11.551 9.07122 11.6135 9.1332C11.6755 9.19568 11.7492 9.24528 11.8305 9.27912C11.9117 9.31297 11.9989 9.33039 12.0869 9.33039C12.1749 9.33039 12.262 9.31297 12.3432 9.27912C12.4245 9.24528 12.4982 9.19568 12.5602 9.1332L13.5069 8.18653C13.9096 7.77993 14.2214 7.2924 14.4216 6.75622C14.6217 6.22005 14.7057 5.64746 14.6678 5.0764C14.63 4.50533 14.4713 3.94882 14.2022 3.44372C13.9331 2.93862 13.5597 2.49646 13.1069 2.14653V2.14653Z" fill="#026C7C"/>
</g>
</g>
</svg>
