<svg width="44" height="44" viewBox="0 0 44 44" fill="none" xmlns="http://www.w3.org/2000/svg">
<g clip-path="url(#clip0_17_178)">
<path d="M40.7054 22.7272L41.5221 20.94C41.5622 20.8521 41.5829 20.7566 41.5829 20.6601L41.5822 16.9273C41.3711 11.8369 39.293 7.55285 35.5724 4.53823C32.0668 1.76718 27.6761 0.359941 23.2129 0.577011C23.1974 0.576354 15.1914 0.562703 15.0404 0.562703C12.2415 0.585392 9.50802 1.41211 7.16566 2.94439C4.8233 4.47667 2.97073 6.64993 1.8286 9.20533C0.686469 11.7607 0.302913 14.5906 0.723617 17.3578C1.14432 20.125 2.35155 22.713 4.20152 24.8135C4.53983 25.1972 4.87799 25.5621 5.20501 25.915C6.84717 27.6871 8.14576 29.0884 8.27291 31.443V33.5694C8.27292 33.9267 8.41486 34.2694 8.66751 34.522C8.92017 34.7747 9.26284 34.9166 9.62014 34.9166H20.4491C20.5518 34.9158 20.654 34.9031 20.7538 34.879C22.6885 40.7413 32.8082 43.6735 35.3882 43.6735C35.9976 43.673 36.5957 43.5083 37.1196 43.1968C37.6471 42.8805 38.0836 42.4327 38.3864 41.8973C38.6891 41.3618 38.8477 40.757 38.8467 40.1418V38.7361L39.961 37.8541C40.0967 37.7468 40.1858 37.5913 40.21 37.42C40.2342 37.2488 40.1916 37.0747 40.091 36.934L39.245 35.7511L40.5906 35.2835C40.7583 35.2253 40.8963 35.1031 40.9744 34.9437C41.0526 34.7843 41.0646 34.6004 41.008 34.4321L40.2942 32.314H42.2496C42.4786 32.3133 42.704 32.2572 42.9064 32.1502C43.1089 32.0433 43.2824 31.8888 43.412 31.7001C43.5453 31.5067 43.6297 31.2838 43.658 31.0506C43.6863 30.8175 43.6576 30.5809 43.5745 30.3612L40.7054 22.7272ZM20.4606 31.4084H20.4491V33.5694H9.62013V31.4083C9.45224 28.007 7.28162 26.2695 5.21198 23.9225C3.53348 22.0164 2.43797 19.6682 2.05583 17.1574C1.67369 14.6465 2.02102 12.0787 3.05648 9.75965C4.09194 7.44054 5.77192 5.46778 7.89648 4.07614C10.021 2.6845 12.5007 1.9326 15.0404 1.90992C15.1775 1.90992 15.316 1.91205 15.4541 1.91632C17.9571 2.01689 20.3804 2.82465 22.4431 4.246C24.5058 5.66735 26.1235 7.64411 27.1089 9.9472C28.0942 12.2503 28.4067 14.7854 28.0102 17.2589C27.6138 19.7323 26.5246 22.0428 24.8688 23.9225C22.8585 26.2022 20.6226 28.1264 20.4606 31.4084ZM42.3029 30.9349C42.2977 30.9445 42.29 30.9526 42.2806 30.9582C42.2713 30.9638 42.2605 30.9668 42.2496 30.9668H39.3565C39.2496 30.9668 39.1442 30.9923 39.0491 31.0411C38.9539 31.0899 38.8718 31.1606 38.8094 31.2474C38.747 31.3343 38.7062 31.4347 38.6903 31.5404C38.6745 31.6462 38.684 31.7541 38.7181 31.8555L39.518 34.2299L37.952 34.774C37.8531 34.8084 37.7635 34.8653 37.6904 34.9404C37.6173 35.0154 37.5628 35.1064 37.531 35.2062C37.4993 35.3061 37.4913 35.4119 37.5076 35.5154C37.5239 35.6188 37.5642 35.717 37.6251 35.8022L38.6217 37.1958L37.755 37.8819C37.6753 37.945 37.6109 38.0252 37.5667 38.1167C37.5224 38.2082 37.4994 38.3085 37.4995 38.4101V40.1418C37.5009 40.5231 37.4034 40.8983 37.2165 41.2306C37.0295 41.5629 36.7595 41.841 36.4328 42.0377C36.1168 42.226 35.756 42.3257 35.3882 42.3263C32.6266 42.3263 22.2111 38.9224 21.7963 33.2438V31.5843C21.8011 31.5483 21.8044 31.5118 21.8062 31.4748C21.9212 29.1458 23.346 27.5909 24.9957 25.7904C25.2851 25.4746 25.5843 25.148 25.8792 24.8136C27.3766 23.1123 28.4579 21.0862 29.0378 18.8953C29.6176 16.7043 29.68 14.4085 29.2201 12.1893C28.7602 9.97008 27.7907 7.88818 26.3879 6.10805C24.9852 4.32793 23.1878 2.89834 21.1377 1.93222C21.9544 1.93289 23.2247 1.92587 23.255 1.92291C31.3685 1.61932 39.8088 6.6865 40.2357 16.9552V20.5135L39.3634 22.4222C39.3265 22.5029 39.306 22.5902 39.303 22.6789C39.2999 22.7676 39.3144 22.856 39.3456 22.9391L42.3141 30.8372C42.3207 30.8531 42.3231 30.8704 42.3211 30.8875C42.3192 30.9046 42.3129 30.9209 42.3029 30.9349Z" fill="#026C7C"/>
<path d="M20.4291 36.6008C20.4291 36.4221 20.3581 36.2508 20.2318 36.1245C20.1055 35.9982 19.9342 35.9272 19.7555 35.9272H10.325C10.1463 35.9272 9.97498 35.9982 9.84866 36.1245C9.72233 36.2508 9.65136 36.4221 9.65136 36.6008C9.65136 36.7794 9.72233 36.9508 9.84866 37.0771C9.97498 37.2034 10.1463 37.2744 10.325 37.2744H19.7555C19.9342 37.2744 20.1055 37.2034 20.2318 37.0771C20.3581 36.9508 20.4291 36.7794 20.4291 36.6008ZM11.6722 38.6216C11.4936 38.6216 11.3222 38.6926 11.1959 38.8189C11.0696 38.9452 10.9986 39.1166 10.9986 39.2952C10.9986 39.4739 11.0696 39.6452 11.1959 39.7715C11.3222 39.8979 11.4936 39.9688 11.6722 39.9688H18.4083C18.587 39.9688 18.7583 39.8979 18.8846 39.7715C19.0109 39.6452 19.0819 39.4739 19.0819 39.2952C19.0819 39.1166 19.0109 38.9452 18.8846 38.8189C18.7583 38.6926 18.587 38.6216 18.4083 38.6216H11.6722ZM15.0403 4.60449C13.0419 4.6045 11.0883 5.19711 9.42674 6.30737C7.76514 7.41763 6.47008 8.99568 5.70533 10.842C4.94059 12.6882 4.7405 14.7198 5.13038 16.6798C5.52025 18.6398 6.48258 20.4402 7.89566 21.8533C9.30875 23.2664 11.1091 24.2287 13.0691 24.6185C15.0291 25.0084 17.0607 24.8083 18.907 24.0435C20.7533 23.2788 22.3313 21.9837 23.4416 20.3221C24.5518 18.6605 25.1444 16.707 25.1444 14.7086C25.1414 12.0297 24.0758 9.46148 22.1816 7.56726C20.2874 5.67303 17.7191 4.60752 15.0403 4.60449ZM15.0403 23.4655C13.3083 23.4655 11.6153 22.9519 10.1752 21.9896C8.73515 21.0274 7.61276 19.6598 6.94998 18.0597C6.2872 16.4596 6.11379 14.6988 6.45168 13.0002C6.78957 11.3015 7.62359 9.74119 8.84826 8.51652C10.0729 7.29185 11.6333 6.45785 13.3319 6.11996C15.0306 5.78208 16.7913 5.9555 18.3914 6.61829C19.9915 7.28108 21.3592 8.40347 22.3214 9.84353C23.2836 11.2836 23.7972 12.9766 23.7972 14.7086C23.7946 17.0303 22.8711 19.2561 21.2295 20.8978C19.5878 22.5394 17.3619 23.4629 15.0403 23.4655Z" fill="#026C7C"/>
<path d="M21.7765 14.3718C21.5979 14.3718 21.4266 14.4428 21.3002 14.5691C21.1739 14.6954 21.1029 14.8668 21.1029 15.0454C21.1029 16.2445 20.7474 17.4166 20.0812 18.4136C19.4151 19.4105 18.4683 20.1876 17.3605 20.6465C16.2527 21.1053 15.0337 21.2254 13.8577 20.9915C12.6817 20.7575 11.6015 20.1802 10.7536 19.3323C9.90575 18.4844 9.32835 17.4042 9.09443 16.2282C8.8605 15.0522 8.98056 13.8332 9.43941 12.7254C9.89827 11.6177 10.6753 10.6708 11.6723 10.0047C12.6693 9.33852 13.8414 8.98295 15.0404 8.98295C15.2191 8.98295 15.3904 8.91199 15.5167 8.78566C15.6431 8.65933 15.714 8.488 15.714 8.30935C15.714 8.1307 15.6431 7.95936 15.5167 7.83304C15.3904 7.70671 15.2191 7.63574 15.0404 7.63574C13.5749 7.63575 12.1424 8.07033 10.9239 8.88452C9.70534 9.69871 8.75563 10.8559 8.19482 12.2099C7.634 13.5638 7.48727 15.0537 7.77318 16.491C8.05909 17.9283 8.7648 19.2486 9.80106 20.2849C10.8373 21.3211 12.1576 22.0268 13.5949 22.3127C15.0323 22.5986 16.5221 22.4519 17.876 21.8911C19.23 21.3302 20.3872 20.3805 21.2014 19.162C22.0156 17.9435 22.4501 16.5109 22.4501 15.0454C22.4501 14.8668 22.3792 14.6954 22.2528 14.5691C22.1265 14.4428 21.9552 14.3718 21.7765 14.3718Z" fill="#026C7C"/>
<path d="M10.3251 15.0453C10.3251 15.9779 10.6017 16.8896 11.1198 17.665C11.6379 18.4404 12.3743 19.0448 13.2359 19.4017C14.0975 19.7586 15.0456 19.852 15.9603 19.67C16.875 19.4881 17.7152 19.039 18.3746 18.3796C19.034 17.7201 19.4831 16.88 19.6651 15.9653C19.847 15.0506 19.7536 14.1025 19.3968 13.2409C19.0399 12.3793 18.4355 11.6429 17.6601 11.1248C16.8847 10.6066 15.973 10.3301 15.0404 10.3301C13.7903 10.3315 12.5918 10.8287 11.7078 11.7127C10.8238 12.5967 10.3265 13.7952 10.3251 15.0453ZM18.4085 15.0453C18.4085 15.7115 18.2109 16.3626 17.8409 16.9165C17.4708 17.4704 16.9448 17.9021 16.3293 18.157C15.7139 18.4119 15.0367 18.4786 14.3834 18.3487C13.73 18.2187 13.1299 17.898 12.6589 17.4269C12.1878 16.9559 11.867 16.3558 11.7371 15.7024C11.6071 15.0491 11.6738 14.3719 11.9287 13.7564C12.1837 13.141 12.6154 12.615 13.1692 12.2449C13.7231 11.8748 14.3743 11.6773 15.0404 11.6773C15.9334 11.6783 16.7894 12.0335 17.4209 12.6649C18.0523 13.2963 18.4074 14.1524 18.4085 15.0453Z" fill="#026C7C"/>
<path d="M13.0196 15.0452C13.0196 15.2239 13.0906 15.3952 13.2169 15.5215C13.3432 15.6479 13.5145 15.7188 13.6932 15.7188C13.8719 15.7188 14.0432 15.6479 14.1695 15.5215C14.2958 15.3952 14.3668 15.2239 14.3668 15.0452C14.3668 14.912 14.4063 14.7818 14.4803 14.671C14.5543 14.5602 14.6595 14.4739 14.7826 14.4229C14.9057 14.3719 15.0412 14.3586 15.1718 14.3846C15.3025 14.4106 15.4225 14.4747 15.5167 14.5689C15.6109 14.6631 15.6751 14.7831 15.7011 14.9138C15.7271 15.0445 15.7137 15.1799 15.6627 15.303C15.6118 15.4261 15.5254 15.5313 15.4147 15.6053C15.3039 15.6793 15.1737 15.7188 15.0404 15.7188C14.8618 15.7188 14.6904 15.7898 14.5641 15.9161C14.4378 16.0425 14.3668 16.2138 14.3668 16.3924C14.3668 16.5711 14.4378 16.7424 14.5641 16.8688C14.6904 16.9951 14.8618 17.0661 15.0404 17.0661C15.4401 17.066 15.8308 16.9475 16.1631 16.7255C16.4955 16.5034 16.7545 16.1878 16.9074 15.8186C17.0604 15.4493 17.1004 15.043 17.0224 14.651C16.9444 14.259 16.752 13.8989 16.4693 13.6163C16.1867 13.3337 15.8266 13.1412 15.4346 13.0632C15.0426 12.9853 14.6363 13.0253 14.2671 13.1782C13.8978 13.3312 13.5822 13.5902 13.3602 13.9225C13.1381 14.2549 13.0196 14.6456 13.0196 15.0452Z" fill="#026C7C"/>
</g>
<defs>
<clipPath id="clip0_17_178">
<rect width="43.1108" height="43.1108" fill="white" transform="translate(0.557739 0.562988)"/>
</clipPath>
</defs>
</svg>
