<svg width="15" height="2" viewBox="0 0 15 2" fill="none" xmlns="http://www.w3.org/2000/svg">
<g clip-path="url(#clip0_17_169)">
<path d="M7.72226 1.50564H11.944C13.2708 1.50564 14.3564 1.43779 14.3564 1.35487V0.977925C14.3564 0.894998 13.2708 0.827148 11.944 0.827148H3.5005C2.17367 0.827148 1.08807 0.894998 1.08807 0.977925V1.09101" stroke="#293691" stroke-width="1.80932" stroke-miterlimit="10" stroke-linecap="round" stroke-linejoin="round"/>
<path d="M11.9439 1.24209H14.3564V1.09131H11.9439C11.2805 1.09131 10.7377 1.12523 10.7377 1.1667C10.7377 1.20816 11.2805 1.24209 11.9439 1.24209Z" stroke="#293691" stroke-width="1.80932" stroke-miterlimit="10" stroke-linecap="round" stroke-linejoin="round"/>
<path d="M4.10358 0.827046L10.5568 0.680039C10.6774 0.67627 10.7981 0.67627 10.9187 0.67627C11.4615 0.67627 11.944 0.706425 11.944 0.74035V0.827046" stroke="#293691" stroke-width="1.80932" stroke-miterlimit="10" stroke-linecap="round" stroke-linejoin="round"/>
<path d="M3.50049 1.50566V1.2041" stroke="#293691" stroke-width="1.80932" stroke-miterlimit="10" stroke-linecap="round" stroke-linejoin="round"/>
<path d="M1.08807 1.35498H5.91293" stroke="#293691" stroke-width="1.80932" stroke-miterlimit="10" stroke-linecap="round" stroke-linejoin="round"/>
</g>
<defs>
<clipPath id="clip0_17_169">
<rect width="14.4746" height="0.904661" fill="white" transform="translate(0.484924 0.638672)"/>
</clipPath>
</defs>
</svg>
