<svg width="43" height="43" viewBox="0 0 43 43" fill="none" xmlns="http://www.w3.org/2000/svg">
<g clip-path="url(#clip0_17_185)">
<path d="M21.3049 41.0247H33.7301C37.6352 41.0247 40.8302 37.8297 40.8302 33.9246V16.1743C40.8302 12.2693 37.6352 9.07422 33.7301 9.07422H8.87971C4.97465 9.07422 1.7796 12.2693 1.7796 16.1743V21.4994" stroke="#026C7C" stroke-width="1.70403" stroke-miterlimit="10" stroke-linecap="round" stroke-linejoin="round"/>
<path d="M33.73 28.5996H40.8302V21.4995H33.73C31.7775 21.4995 30.18 23.097 30.18 25.0496C30.18 27.0021 31.7775 28.5996 33.73 28.5996Z" stroke="#026C7C" stroke-width="1.70403" stroke-miterlimit="10" stroke-linecap="round" stroke-linejoin="round"/>
<path d="M10.6548 9.07374L29.6476 2.15114C30.0026 1.97363 30.3576 1.97363 30.7126 1.97363C32.3101 1.97363 33.7301 3.39366 33.7301 4.99118V9.07374" stroke="#026C7C" stroke-width="1.70403" stroke-miterlimit="10" stroke-linecap="round" stroke-linejoin="round"/>
<path d="M8.8797 41.0244V26.8242" stroke="#026C7C" stroke-width="1.70403" stroke-miterlimit="10" stroke-linecap="round" stroke-linejoin="round"/>
<path d="M1.7796 33.9243H15.9798" stroke="#026C7C" stroke-width="1.70403" stroke-miterlimit="10" stroke-linecap="round" stroke-linejoin="round"/>
</g>
<defs>
<clipPath id="clip0_17_185">
<rect width="42.6007" height="42.6007" fill="white" transform="translate(0.00457764 0.19873)"/>
</clipPath>
</defs>
</svg>
