<svg width="10" height="10" viewBox="0 0 10 10" fill="none" xmlns="http://www.w3.org/2000/svg">
<path d="M4.00446 2.70245C4.33391 1.88114 4.49863 1.47048 4.76625 1.41357C4.83662 1.3986 4.90935 1.3986 4.97972 1.41357C5.24734 1.47048 5.41207 1.88114 5.74151 2.70245C5.92887 3.16952 6.02254 3.40305 6.19782 3.56189C6.24699 3.60644 6.30036 3.64612 6.35718 3.68037C6.55977 3.80248 6.81268 3.82513 7.31848 3.87042C8.17472 3.94711 8.60285 3.98545 8.73358 4.22955C8.76066 4.28011 8.77907 4.33485 8.78805 4.39149C8.83139 4.66499 8.51666 4.95133 7.88719 5.52401L7.71239 5.68304C7.41811 5.95078 7.27096 6.08465 7.18585 6.25172C7.1348 6.35193 7.10057 6.45986 7.08453 6.57119C7.05779 6.75677 7.10088 6.95097 7.18705 7.33938L7.21784 7.47816C7.37239 8.17471 7.44966 8.52298 7.3532 8.69417C7.26655 8.84794 7.10696 8.94639 6.93066 8.95481C6.73438 8.96418 6.45783 8.73883 5.90472 8.28812C5.54031 7.99118 5.35811 7.84271 5.15584 7.78472C4.97099 7.73171 4.77498 7.73171 4.59013 7.78472C4.38786 7.84271 4.20566 7.99118 3.84125 8.28812C3.28814 8.73883 3.01159 8.96418 2.81531 8.95481C2.63901 8.94639 2.47942 8.84794 2.39277 8.69417C2.29631 8.52298 2.37358 8.17471 2.52813 7.47816L2.55892 7.33938C2.64509 6.95097 2.68818 6.75677 2.66144 6.57119C2.6454 6.45986 2.61117 6.35193 2.56012 6.25172C2.47501 6.08465 2.32787 5.95078 2.03358 5.68304L1.85878 5.52401C1.22931 4.95133 0.914581 4.66499 0.957924 4.39149C0.966901 4.33485 0.98531 4.28011 1.01239 4.22955C1.14313 3.98545 1.57125 3.94711 2.42749 3.87042C2.9333 3.82513 3.1862 3.80248 3.38879 3.68037C3.44562 3.64612 3.49898 3.60644 3.54815 3.56189C3.72343 3.40305 3.81711 3.16952 4.00446 2.70245Z" fill="#222222" stroke="#222222" stroke-width="1.0262"/>
</svg>
