<svg width="10" height="10" viewBox="0 0 10 10" fill="none" xmlns="http://www.w3.org/2000/svg">
<path d="M3.75607 2.70245C4.08552 1.88114 4.25025 1.47048 4.51787 1.41357C4.58824 1.3986 4.66097 1.3986 4.73134 1.41357C4.99896 1.47048 5.16368 1.88114 5.49313 2.70245C5.68048 3.16952 5.77416 3.40305 5.94944 3.56189C5.9986 3.60644 6.05197 3.64612 6.1088 3.68037C6.31139 3.80248 6.56429 3.82513 7.0701 3.87042C7.92634 3.94711 8.35446 3.98545 8.4852 4.22955C8.51228 4.28011 8.53069 4.33485 8.53966 4.39149C8.58301 4.66499 8.26827 4.95133 7.63881 5.52401L7.46401 5.68304C7.16972 5.95078 7.02258 6.08465 6.93747 6.25172C6.88642 6.35193 6.85218 6.45986 6.83614 6.57119C6.80941 6.75677 6.85249 6.95097 6.93867 7.33938L6.96946 7.47816C7.124 8.17471 7.20128 8.52298 7.10482 8.69417C7.01817 8.84794 6.85857 8.94639 6.68227 8.95481C6.486 8.96418 6.20945 8.73883 5.65634 8.28812C5.29193 7.99118 5.10972 7.84271 4.90746 7.78472C4.72261 7.73171 4.52659 7.73171 4.34175 7.78472C4.13948 7.84271 3.95728 7.99118 3.59287 8.28812C3.03976 8.73883 2.7632 8.96418 2.56693 8.95481C2.39063 8.94639 2.23103 8.84794 2.14439 8.69417C2.04793 8.52298 2.1252 8.17471 2.27974 7.47816L2.31054 7.33938C2.39671 6.95097 2.4398 6.75677 2.41306 6.57119C2.39702 6.45986 2.36279 6.35193 2.31174 6.25172C2.22663 6.08465 2.07948 5.95078 1.7852 5.68304L1.6104 5.52401C0.980931 4.95133 0.666198 4.66499 0.709541 4.39149C0.718518 4.33485 0.736928 4.28011 0.764005 4.22955C0.894742 3.98545 1.32286 3.94711 2.17911 3.87042C2.68491 3.82513 2.93782 3.80248 3.14041 3.68037C3.19723 3.64612 3.2506 3.60644 3.29977 3.56189C3.47505 3.40305 3.56872 3.16952 3.75607 2.70245Z" fill="#222222" stroke="#222222" stroke-width="1.0262"/>
</svg>
