<svg width="9" height="10" viewBox="0 0 9 10" fill="none" xmlns="http://www.w3.org/2000/svg">
<path d="M3.54375 2.6356C3.86752 1.82845 4.0294 1.42487 4.29241 1.36894C4.36157 1.35423 4.43304 1.35423 4.5022 1.36894C4.76521 1.42487 4.92709 1.82845 5.25086 2.6356C5.43498 3.09462 5.52704 3.32412 5.6993 3.48022C5.74761 3.52401 5.80006 3.563 5.85591 3.59666C6.05501 3.71666 6.30355 3.73892 6.80064 3.78344C7.64212 3.8588 8.06286 3.89648 8.19134 4.13637C8.21795 4.18606 8.23604 4.23985 8.24486 4.29552C8.28746 4.5643 7.97815 4.8457 7.35954 5.40851L7.18776 5.5648C6.89854 5.82792 6.75394 5.95949 6.67029 6.12367C6.62012 6.22216 6.58648 6.32823 6.57072 6.43763C6.54444 6.62002 6.58678 6.81087 6.67147 7.19259L6.70173 7.32897C6.85361 8.01351 6.92955 8.35578 6.83476 8.52402C6.7496 8.67514 6.59276 8.77188 6.4195 8.78016C6.22661 8.78937 5.95482 8.5679 5.41125 8.12497C5.05312 7.83315 4.87406 7.68724 4.67528 7.63024C4.49362 7.57815 4.30099 7.57815 4.11933 7.63024C3.92055 7.68724 3.74148 7.83315 3.38336 8.12497C2.83979 8.5679 2.568 8.78937 2.37511 8.78016C2.20185 8.77188 2.045 8.67514 1.95985 8.52402C1.86506 8.35578 1.941 8.01351 2.09288 7.32897L2.12313 7.19259C2.20783 6.81087 2.25017 6.62002 2.22389 6.43763C2.20813 6.32823 2.17449 6.22216 2.12431 6.12367C2.04067 5.95949 1.89607 5.82792 1.60685 5.5648L1.43507 5.40851C0.816455 4.8457 0.507148 4.5643 0.549744 4.29552C0.558566 4.23985 0.576659 4.18606 0.603269 4.13637C0.731752 3.89648 1.15249 3.8588 1.99397 3.78344C2.49106 3.73892 2.7396 3.71666 2.9387 3.59666C2.99454 3.563 3.04699 3.52401 3.09531 3.48022C3.26757 3.32412 3.35963 3.09462 3.54375 2.6356Z" fill="#222222" stroke="#222222" stroke-width="1.00851"/>
</svg>
