<svg width="13" height="13" viewBox="0 0 13 13" fill="none" xmlns="http://www.w3.org/2000/svg">
<path d="M6.18774 1.35359C6.47731 0.823695 7.23831 0.823695 7.52789 1.35358L8.35465 2.86645C8.51155 3.15355 8.83392 3.3088 9.15621 3.25246L10.8545 2.95559C11.4493 2.85162 11.9238 3.44658 11.6901 4.00337L11.0227 5.59301C10.8961 5.89469 10.9757 6.24352 11.2207 6.46037L12.5117 7.60305C12.9638 8.00328 12.7945 8.74519 12.2135 8.9096L10.5546 9.37899C10.2397 9.46807 10.0166 9.74781 9.99985 10.0746L9.91137 11.7963C9.88038 12.3994 9.19475 12.7296 8.70394 12.3778L7.30264 11.3735C7.03671 11.1829 6.67891 11.1829 6.41298 11.3735L5.01168 12.3778C4.52087 12.7296 3.83524 12.3994 3.80425 11.7963L3.71577 10.0746C3.69898 9.74781 3.47589 9.46807 3.16107 9.37899L1.50217 8.9096C0.921124 8.74519 0.751788 8.00328 1.20395 7.60305L2.49491 6.46037C2.73991 6.24352 2.81952 5.89469 2.69288 5.59301L2.02556 4.00337C1.79182 3.44658 2.26629 2.85162 2.86113 2.95559L4.55941 3.25246C4.8817 3.3088 5.20407 3.15355 5.36097 2.86645L6.18774 1.35359Z" fill="#149BFC"/>
</svg>
