<svg width="13" height="13" viewBox="0 0 13 13" fill="none" xmlns="http://www.w3.org/2000/svg">
<path d="M5.87975 1.35359C6.16933 0.823695 6.93032 0.823695 7.2199 1.35358L8.04667 2.86645C8.20357 3.15355 8.52594 3.3088 8.84823 3.25246L10.5465 2.95559C11.1413 2.85162 11.6158 3.44658 11.3821 4.00337L10.7148 5.59301C10.5881 5.89469 10.6677 6.24352 10.9127 6.46037L12.2037 7.60305C12.6559 8.00328 12.4865 8.74519 11.9055 8.9096L10.2466 9.37899C9.93175 9.46807 9.70866 9.74781 9.69187 10.0746L9.60339 11.7963C9.5724 12.3994 8.88677 12.7296 8.39596 12.3778L6.99466 11.3735C6.72873 11.1829 6.37093 11.1829 6.10499 11.3735L4.7037 12.3778C4.21289 12.7296 3.52726 12.3994 3.49627 11.7963L3.40778 10.0746C3.39099 9.74781 3.16791 9.46807 2.85309 9.37899L1.19418 8.9096C0.613141 8.74519 0.443804 8.00328 0.895971 7.60305L2.18693 6.46037C2.43192 6.24352 2.51154 5.89469 2.3849 5.59301L1.71758 4.00337C1.48384 3.44658 1.95831 2.85162 2.55315 2.95559L4.25143 3.25246C4.57372 3.3088 4.89609 3.15355 5.05299 2.86645L5.87975 1.35359Z" fill="#149BFC"/>
</svg>
