<svg width="10" height="10" viewBox="0 0 10 10" fill="none" xmlns="http://www.w3.org/2000/svg">
<path d="M3.88013 2.70245C4.20958 1.88114 4.3743 1.47048 4.64192 1.41357C4.71229 1.3986 4.78502 1.3986 4.85539 1.41357C5.12301 1.47048 5.28774 1.88114 5.61719 2.70245C5.80454 3.16952 5.89821 3.40305 6.07349 3.56189C6.12266 3.60644 6.17603 3.64612 6.23285 3.68037C6.43544 3.80248 6.68835 3.82513 7.19415 3.87042C8.0504 3.94711 8.47852 3.98545 8.60925 4.22955C8.63633 4.28011 8.65474 4.33485 8.66372 4.39149C8.70706 4.66499 8.39233 4.95133 7.76286 5.52401L7.58806 5.68304C7.29378 5.95078 7.14663 6.08465 7.06152 6.25172C7.01047 6.35193 6.97624 6.45986 6.9602 6.57119C6.93346 6.75677 6.97655 6.95097 7.06272 7.33938L7.09351 7.47816C7.24806 8.17471 7.32533 8.52298 7.22887 8.69417C7.14223 8.84794 6.98263 8.94639 6.80633 8.95481C6.61006 8.96418 6.3335 8.73883 5.78039 8.28812C5.41598 7.99118 5.23378 7.84271 5.03151 7.78472C4.84667 7.73171 4.65065 7.73171 4.4658 7.78472C4.26354 7.84271 4.08133 7.99118 3.71692 8.28812C3.16381 8.73883 2.88726 8.96418 2.69099 8.95481C2.51469 8.94639 2.35509 8.84794 2.26844 8.69417C2.17198 8.52298 2.24925 8.17471 2.4038 7.47816L2.43459 7.33938C2.52077 6.95097 2.56385 6.75677 2.53711 6.57119C2.52107 6.45986 2.48684 6.35193 2.43579 6.25172C2.35068 6.08465 2.20354 5.95078 1.90925 5.68304L1.73445 5.52401C1.10498 4.95133 0.790252 4.66499 0.833595 4.39149C0.842572 4.33485 0.860982 4.28011 0.888059 4.22955C1.0188 3.98545 1.44692 3.94711 2.30316 3.87042C2.80897 3.82513 3.06187 3.80248 3.26446 3.68037C3.32129 3.64612 3.37466 3.60644 3.42382 3.56189C3.5991 3.40305 3.69278 3.16952 3.88013 2.70245Z" fill="#222222" stroke="#222222" stroke-width="1.0262"/>
</svg>
