<svg width="13" height="12" viewBox="0 0 13 12" fill="none" xmlns="http://www.w3.org/2000/svg">
<path d="M5.86608 0.590402C6.15566 0.0605117 6.91665 0.0605114 7.20623 0.590401L8.03299 2.10326C8.18989 2.39037 8.51226 2.54561 8.83456 2.48928L10.5328 2.19241C11.1277 2.08843 11.6021 2.6834 11.3684 3.24018L10.7011 4.82983C10.5744 5.1315 10.6541 5.48033 10.8991 5.69719L12.19 6.83987C12.6422 7.2401 12.4728 7.98201 11.8918 8.14642L10.2329 8.61581C9.91808 8.70489 9.69499 8.98463 9.6782 9.31138L9.58972 11.0331C9.55873 11.6362 8.8731 11.9664 8.38228 11.6146L6.98099 10.6103C6.71506 10.4197 6.35725 10.4197 6.09132 10.6103L4.69003 11.6146C4.19922 11.9664 3.51359 11.6362 3.48259 11.0331L3.39411 9.31138C3.37732 8.98463 3.15423 8.70489 2.83941 8.61581L1.18051 8.14642C0.599469 7.98201 0.430132 7.2401 0.882299 6.83987L2.17326 5.69719C2.41825 5.48033 2.49787 5.1315 2.37123 4.82983L1.7039 3.24018C1.47017 2.6834 1.94464 2.08843 2.53947 2.19241L4.23775 2.48928C4.56005 2.54561 4.88242 2.39037 5.03932 2.10326L5.86608 0.590402Z" fill="#149BFC"/>
</svg>
