<svg width="12" height="13" viewBox="0 0 12 13" fill="none" xmlns="http://www.w3.org/2000/svg">
<path d="M5.26396 4.17857C5.62856 3.18973 5.81086 2.69531 6.12434 2.69531C6.43783 2.69531 6.62013 3.18973 6.98472 4.17857L7.0017 4.22462C7.20768 4.78327 7.31067 5.06259 7.52057 5.23237C7.73047 5.40214 8.00601 5.42899 8.55708 5.48268L8.6567 5.49239C9.55861 5.58026 10.0096 5.6242 10.106 5.93632C10.2025 6.24845 9.86765 6.57991 9.19786 7.24285L8.97432 7.4641C8.63526 7.79969 8.46573 7.96749 8.38671 8.18741C8.37197 8.22843 8.35972 8.27046 8.35003 8.31323C8.29809 8.54249 8.34773 8.78591 8.44702 9.27275L8.47793 9.42429C8.6604 10.319 8.75163 10.7664 8.59234 10.9593C8.53281 11.0314 8.45545 11.0833 8.3695 11.1089C8.13951 11.1771 7.81298 10.8877 7.15992 10.3087C6.73109 9.92859 6.51668 9.73851 6.27051 9.69575C6.17368 9.67893 6.07501 9.67893 5.97818 9.69575C5.73201 9.73851 5.5176 9.92859 5.08877 10.3087C4.43571 10.8877 4.10918 11.1771 3.87918 11.1089C3.79324 11.0833 3.71588 11.0314 3.65635 10.9593C3.49705 10.7664 3.58829 10.319 3.77076 9.42429L3.80167 9.27275C3.90095 8.78591 3.9506 8.54249 3.89866 8.31323C3.88897 8.27046 3.87672 8.22843 3.86198 8.18741C3.78296 7.96749 3.61343 7.79969 3.27437 7.4641L3.05083 7.24285C2.38104 6.57991 2.04614 6.24845 2.14264 5.93632C2.23913 5.6242 2.69008 5.58026 3.59198 5.49239L3.69161 5.48268C4.24268 5.42899 4.51822 5.40214 4.72812 5.23237C4.93802 5.06259 5.04101 4.78327 5.24699 4.22462L5.26396 4.17857Z" stroke="#33363F" stroke-width="1.00851"/>
</svg>
