<svg width="41" height="42" viewBox="0 0 41 42" fill="none" xmlns="http://www.w3.org/2000/svg">
<path d="M1.51034 9.79164L9.95217 1.34981C10.1669 1.13504 10.5151 1.13504 10.7299 1.34981L18.6356 9.25552C18.8504 9.47029 18.8504 9.8185 18.6356 10.0333L13.0725 15.5964C12.7377 15.9312 12.6547 16.4426 12.8664 16.8661L14.968 21.0693C16.192 23.5172 18.1769 25.5021 20.6248 26.726L24.828 28.8276C25.2515 29.0394 25.7629 28.9564 26.0977 28.6216L31.6608 23.0584C31.8756 22.8437 32.2238 22.8437 32.4385 23.0584L40.3443 30.9641C40.559 31.1789 40.559 31.5271 40.3443 31.7419L31.9024 40.1837C30.7413 41.3449 28.903 41.4755 27.5894 40.4902L13.9575 30.2664C12.9986 29.5472 12.1469 28.6954 11.4277 27.7366L1.20382 14.1047C0.218558 12.791 0.3492 10.9528 1.51034 9.79164Z" fill="#026C7C" fill-opacity="0.19" stroke="#026C7C" stroke-width="0.659942"/>
</svg>
